REM DIRINDEX 1\2\4,1\2\5,1\2\6,1\3\7,1\3\8,1\3\9,1\3\10
REM DIRNAME cjc057,folder01,folder02,folder03,folder04,folder05,folder06,folder07,folder08,folder09
TITLE ""
FILE "b_054.mp3" MP3
  TRACK 01 AUDIO
    TITLE "0:"
    INDEX 01 00:00:00
  TRACK 02 AUDIO
    TITLE "7:cjc057_05744"
    INDEX 01 00:00:13
  TRACK 03 AUDIO
    TITLE "0:"
    INDEX 01 00:01:38
  TRACK 04 AUDIO
    TITLE "8:cjc057_05745"
    INDEX 01 00:01:73
  TRACK 05 AUDIO
    TITLE "0:"
    INDEX 01 00:04:64
  TRACK 06 AUDIO
    TITLE "9:cjc057_05746"
    INDEX 01 00:05:40
  TRACK 07 AUDIO
    TITLE "0:"
    INDEX 01 00:08:44
  TRACK 08 AUDIO
    TITLE "7:cjc057_05747"
    INDEX 01 00:09:55
  TRACK 09 AUDIO
    TITLE "0:"
    INDEX 01 00:10:68
  TRACK 10 AUDIO
    TITLE "8:cjc057_05748"
    INDEX 01 00:11:25
  TRACK 11 AUDIO
    TITLE "0:"
    INDEX 01 00:12:44
  TRACK 12 AUDIO
    TITLE "9:cjc057_05749"
    INDEX 01 00:13:18
  TRACK 13 AUDIO
    TITLE "0:"
    INDEX 01 00:16:32
  TRACK 14 AUDIO
    TITLE "7:cjc057_05750"
    INDEX 01 00:17:41
  TRACK 15 AUDIO
    TITLE "0:"
    INDEX 01 00:18:62
  TRACK 16 AUDIO
    TITLE "8:cjc057_05751"
    INDEX 01 00:19:20
  TRACK 17 AUDIO
    TITLE "0:"
    INDEX 01 00:20:61
  TRACK 18 AUDIO
    TITLE "9:cjc057_05752"
    INDEX 01 00:21:33
  TRACK 19 AUDIO
    TITLE "0:"
    INDEX 01 00:24:74
  TRACK 20 AUDIO
    TITLE "7:cjc057_05753"
    INDEX 01 00:26:11
  TRACK 21 AUDIO
    TITLE "0:"
    INDEX 01 00:27:28
  TRACK 22 AUDIO
    TITLE "8:cjc057_05754"
    INDEX 01 00:27:65
  TRACK 23 AUDIO
    TITLE "0:"
    INDEX 01 00:29:50
  TRACK 24 AUDIO
    TITLE "9:cjc057_05755"
    INDEX 01 00:30:20
  TRACK 25 AUDIO
    TITLE "0:"
    INDEX 01 00:32:60
  TRACK 26 AUDIO
    TITLE "7:cjc057_05756"
    INDEX 01 00:33:68
  TRACK 27 AUDIO
    TITLE "0:"
    INDEX 01 00:35:23
  TRACK 28 AUDIO
    TITLE "8:cjc057_05757"
    INDEX 01 00:35:57
  TRACK 29 AUDIO
    TITLE "0:"
    INDEX 01 00:38:14
  TRACK 30 AUDIO
    TITLE "9:cjc057_05758"
    INDEX 01 00:38:61
  TRACK 31 AUDIO
    TITLE "0:"
    INDEX 01 00:41:38
  TRACK 32 AUDIO
    TITLE "7:cjc057_05759"
    INDEX 01 00:42:49
  TRACK 33 AUDIO
    TITLE "0:"
    INDEX 01 00:44:05
  TRACK 34 AUDIO
    TITLE "8:cjc057_05760"
    INDEX 01 00:44:40
  TRACK 35 AUDIO
    TITLE "0:"
    INDEX 01 00:45:61
  TRACK 36 AUDIO
    TITLE "9:cjc057_05761"
    INDEX 01 00:46:33
  TRACK 37 AUDIO
    TITLE "0:"
    INDEX 01 00:50:13
  TRACK 38 AUDIO
    TITLE "7:cjc057_05762"
    INDEX 01 00:51:24
  TRACK 39 AUDIO
    TITLE "0:"
    INDEX 01 00:52:51
  TRACK 40 AUDIO
    TITLE "8:cjc057_05763"
    INDEX 01 00:53:08
  TRACK 41 AUDIO
    TITLE "0:"
    INDEX 01 00:56:08
  TRACK 42 AUDIO
    TITLE "9:cjc057_05764"
    INDEX 01 00:56:51
  TRACK 43 AUDIO
    TITLE "0:"
    INDEX 01 00:59:61
  TRACK 44 AUDIO
    TITLE "7:cjc057_05765"
    INDEX 01 01:00:74
  TRACK 45 AUDIO
    TITLE "0:"
    INDEX 01 01:02:34
  TRACK 46 AUDIO
    TITLE "8:cjc057_05766"
    INDEX 01 01:02:69
  TRACK 47 AUDIO
    TITLE "0:"
    INDEX 01 01:04:19
  TRACK 48 AUDIO
    TITLE "9:cjc057_05767"
    INDEX 01 01:04:68
  TRACK 49 AUDIO
    TITLE "0:"
    INDEX 01 01:07:66
  TRACK 50 AUDIO
    TITLE "7:cjc057_05768"
    INDEX 01 01:09:01
  TRACK 51 AUDIO
    TITLE "0:"
    INDEX 01 01:10:35
  TRACK 52 AUDIO
    TITLE "8:cjc057_05769"
    INDEX 01 01:10:71
  TRACK 53 AUDIO
    TITLE "0:"
    INDEX 01 01:12:40
  TRACK 54 AUDIO
    TITLE "9:cjc057_05770"
    INDEX 01 01:13:08
  TRACK 55 AUDIO
    TITLE "0:"
    INDEX 01 01:17:16
  TRACK 56 AUDIO
    TITLE "7:cjc057_05771"
    INDEX 01 01:18:29
  TRACK 57 AUDIO
    TITLE "0:"
    INDEX 01 01:19:40
  TRACK 58 AUDIO
    TITLE "8:cjc057_05772"
    INDEX 01 01:20:00
  TRACK 59 AUDIO
    TITLE "0:"
    INDEX 01 01:21:20
  TRACK 60 AUDIO
    TITLE "9:cjc057_05773"
    INDEX 01 01:21:67
  TRACK 61 AUDIO
    TITLE "0:"
    INDEX 01 01:24:14
  TRACK 62 AUDIO
    TITLE "7:cjc057_05774"
    INDEX 01 01:25:23
  TRACK 63 AUDIO
    TITLE "0:"
    INDEX 01 01:26:62
  TRACK 64 AUDIO
    TITLE "8:cjc057_05775"
    INDEX 01 01:27:24
  TRACK 65 AUDIO
    TITLE "0:"
    INDEX 01 01:28:61
  TRACK 66 AUDIO
    TITLE "9:cjc057_05776"
    INDEX 01 01:29:31
  TRACK 67 AUDIO
    TITLE "0:"
    INDEX 01 01:32:66
  TRACK 68 AUDIO
    TITLE "7:cjc057_05777"
    INDEX 01 01:34:01
  TRACK 69 AUDIO
    TITLE "0:"
    INDEX 01 01:35:27
  TRACK 70 AUDIO
    TITLE "8:cjc057_05778"
    INDEX 01 01:35:63
  TRACK 71 AUDIO
    TITLE "0:"
    INDEX 01 01:36:62
  TRACK 72 AUDIO
    TITLE "9:cjc057_05779"
    INDEX 01 01:37:34
  TRACK 73 AUDIO
    TITLE "0:"
    INDEX 01 01:40:74
